<?xml version="1.0" encoding="UTF-8"?>
<svg width="752pt" height="752pt" version="1.1" viewBox="0 0 752 752" xmlns="http://www.w3.org/2000/svg">
 <path d="m389.95 184.46c-3.6992-3.6992-8.7188-5.7812-13.953-5.7812s-10.25 2.082-13.949 5.7812c-5.0703 5.0664-124.18 125.62-124.18 250.74 0 49.348 26.324 94.949 69.062 119.62 42.738 24.676 95.391 24.676 138.13 0 42.734-24.672 69.062-70.273 69.062-119.62 0-125.12-119.11-245.68-124.18-250.74zm62.898 279.3c-14.891 29.215-44.121 48.371-76.852 50.371-7.0469 0-13.562-3.7617-17.086-9.8672-3.5273-6.1055-3.5273-13.625 0-19.73 3.5234-6.1055 10.039-9.8672 17.086-9.8672 17.773-2.0469 33.367-12.793 41.605-28.672 3.1992-6.25 9.4805-10.332 16.488-10.715 7.0117-0.38281 13.699 2.9883 17.562 8.8516 3.8594 5.8633 4.3164 13.34 1.1953 19.629z"/>
</svg>
